# xmcd CD database file
#
# Track frame offsets:
#	180
#	29193
#	51484
#	71957
#	96761
#	136333
#	159287
#	174257
#	199252
#	218731
#	248064
#	284873
#	313531
#
# Disc length: 4454 seconds
#
# Revision: 0
# Processed by: cddbd v1.5.2PL0 Copyright (c) Steve Scherf et al.
# Submitted via: CDex 1.51
#
DISCID=ca11640d
DTITLE=Whitmer, Tim and the Kansas City Express - Humorous Intentions
DYEAR=1992
DGENRE=Blues
TTITLE0=Let the Good times Roll
TTITLE1=Humorous Intentions
TTITLE2=Kansas City
TTITLE3=Kansas City Shout
TTITLE4=Little Suede Shoes
TTITLE5=Shining Stockings
TTITLE6=Poem for George
TTITLE7=Route 66
TTITLE8=Struttin' with Some Bar-B-Que
TTITLE9=There will Never be another you
TTITLE10=Summertime
TTITLE11=Down for the Count
TTITLE12=Mercy, Mercy, Mercy
EXTD=YEAR: 1992
EXTT0=
EXTT1=
EXTT2=
EXTT3=
EXTT4=
EXTT5=
EXTT6=
EXTT7=
EXTT8=
EXTT9=
EXTT10=
EXTT11=
EXTT12=
PLAYORDER=
